<svg width="40" height="28" viewBox="0 0 40 28" fill="none" xmlns="http://www.w3.org/2000/svg"><path d="M11.642 0.399998C7.142 0.399998 3.522 2.68 0.782 7.24C-1.958 11.8 -0.918 18.32 3.762 26.8L8.162 23.4C5.642 18.44 5.202 15.16 6.842 13.56C8.482 11.96 10.922 11.16 14.162 11.16V0.399998H11.642ZM39.642 0.399998C35.142 0.399998 31.522 2.68 28.782 7.24C26.042 11.8 27.082 18.32 31.762 26.8L36.162 23.4C33.642 18.44 33.202 15.16 34.842 13.56C36.482 11.96 38.922 11.16 42.162 11.16V0.399998H39.642Z" fill="url(#paint0_linear_24_170)"></path><defs><linearGradient id="paint0_linear_24_170" x1="4.06199" y1="0.399998" x2="11.417" y2="28.021" gradientUnits="userSpaceOnUse"><stop stop-color="#FFDB59"></stop><stop offset="1" stop-color="#FF9933"></stop></linearGradient></defs></svg>